<svg width="70" height="72" viewBox="0 0 70 72" fill="none" xmlns="http://www.w3.org/2000/svg">
<rect width="70" height="70" rx="10" fill="#ECF9FF" fill-opacity="0.8"/>
<g filter="url(#filter0_f_653_232)">
<rect x="22" y="35" width="27" height="27" rx="10" fill="#FFC350" fill-opacity="0.25"/>
</g>
<g clip-path="url(#clip0_653_232)">
<path d="M34.4349 15.1292L16.5233 23.7762C16.2987 23.8847 16.156 24.112 16.156 24.3614V45.6386C16.156 45.888 16.2987 46.1153 16.5233 46.2237L34.4349 54.8708C34.7919 55.0431 35.208 55.0431 35.5649 54.8708L53.4766 46.2237C53.7012 46.1153 53.8438 45.888 53.8438 45.6386V24.3614C53.8438 24.112 53.7011 23.8847 53.4766 23.7762L35.5649 15.1292C35.208 14.9569 34.7919 14.9569 34.4349 15.1292Z" fill="#FFE17D"/>
<path d="M16.2641 24.0057C16.1958 24.1097 16.156 24.2321 16.156 24.3614V45.6386C16.156 45.888 16.2987 46.1153 16.5233 46.2238L34.4349 54.8707C34.6133 54.9569 34.8066 55 34.9999 55V33.0507L16.2641 24.0057Z" fill="#FFC350"/>
<path d="M53.7359 24.0057C53.8041 24.1097 53.8439 24.2321 53.8439 24.3614V45.6386C53.8439 45.888 53.7012 46.1153 53.4766 46.2238L35.565 54.8707C35.3866 54.9569 35.1933 55 35 55V33.0507L53.7359 24.0057Z" fill="#FFD164"/>
<path d="M21.5162 44.5045C21.4217 44.5045 21.3252 44.4835 21.2345 44.4398L18.4691 43.1047C18.1455 42.9486 18.0103 42.5602 18.1664 42.2373C18.3219 41.9143 18.7115 41.7798 19.0339 41.9346L21.7993 43.2698C22.1228 43.4259 22.258 43.8142 22.1019 44.1372C21.9903 44.3693 21.758 44.5045 21.5162 44.5045Z" fill="#FFE17D"/>
<path d="M24.0615 42.8477C23.967 42.8477 23.8705 42.8268 23.7798 42.783L18.4729 40.2213C18.1499 40.0652 18.0141 39.6768 18.1702 39.3539C18.3257 39.0315 18.7159 38.8964 19.0377 39.0512L24.3445 41.6129C24.6674 41.769 24.8032 42.1574 24.6471 42.4804C24.5356 42.7125 24.3033 42.8477 24.0615 42.8477Z" fill="#FFF6D8"/>
<path d="M47.3866 27.0603L28.5849 17.9773L23.6287 20.3796L42.4726 29.4767L47.3866 27.0603Z" fill="#FF8087"/>
<path d="M42.4727 29.4768V36.5242C42.4727 36.7638 42.723 36.921 42.9388 36.8168L47.0195 34.8469C47.2441 34.7385 47.3867 34.5111 47.3867 34.2617V27.0605L42.4727 29.4768Z" fill="#E6646E"/>
</g>
<defs>
<filter id="filter0_f_653_232" x="12" y="25" width="47" height="47" filterUnits="userSpaceOnUse" color-interpolation-filters="sRGB">
<feFlood flood-opacity="0" result="BackgroundImageFix"/>
<feBlend mode="normal" in="SourceGraphic" in2="BackgroundImageFix" result="shape"/>
<feGaussianBlur stdDeviation="5" result="effect1_foregroundBlur_653_232"/>
</filter>
<clipPath id="clip0_653_232">
<rect width="40" height="40" fill="white" transform="translate(15 15)"/>
</clipPath>
</defs>
</svg>
