<svg width="142" height="142" viewBox="0 0 142 142" fill="none" xmlns="http://www.w3.org/2000/svg">
<g filter="url(#filter0_d_670_8657)">
<rect x="38.6665" y="34" width="64.1667" height="64.1667" rx="32.0833" fill="#FFF9F7"/>
<g clip-path="url(#clip0_670_8657)">
<path d="M77.3047 71.9342L78.0339 72.1053L80.4013 78.9069C80.4767 79.1235 80.3012 79.3451 80.073 79.3211L76.7546 78.9737C76.6619 78.964 76.5697 78.9961 76.5031 79.0612L74.1176 81.394C73.9537 81.5544 73.6785 81.4897 73.6031 81.2731L71.2202 74.427L71.565 73.9218L77.3047 71.9342Z" fill="#FF4755"/>
<path d="M71.2203 74.4269L70.7388 73.0437L77.5539 70.7261L78.0339 72.1053C76.0988 73.4862 73.7555 74.3315 71.2203 74.4269Z" fill="#FC2B3A"/>
<path d="M64.1832 71.9342L63.454 72.1053L61.0866 78.9069C61.0112 79.1235 61.1867 79.3451 61.4149 79.3211L64.7333 78.9737C64.826 78.964 64.9181 78.9961 64.9847 79.0612L67.3702 81.394C67.5342 81.5544 67.8094 81.4897 67.8847 81.2731L70.2676 74.427L69.9228 73.9218L64.1832 71.9342Z" fill="#FF4755"/>
<path d="M70.2682 74.4269L70.7497 73.0437L63.9346 70.7261L63.4546 72.1053C65.3898 73.4862 67.733 74.3315 70.2682 74.4269Z" fill="#FC2B3A"/>
<path d="M70.7477 72.2558C59.5815 72.2558 59.5723 61.4867 59.5815 61.3C59.875 55.3872 64.7621 50.6833 70.7477 50.6833C76.7334 50.6833 81.6205 55.3872 81.914 61.3C81.9232 61.4867 81.9279 72.2558 70.7477 72.2558Z" fill="#FFCB5B"/>
<path d="M70.7495 71.9165C64.7638 71.9165 59.877 67.2127 59.5834 61.2999C59.5741 61.4866 59.5693 61.6745 59.5693 61.8634C59.5693 68.038 64.5749 73.0436 70.7495 73.0436C76.9241 73.0436 81.9297 68.038 81.9297 61.8634C81.9297 61.6745 81.9248 61.4866 81.9156 61.2999C81.622 67.2127 76.7352 71.9165 70.7495 71.9165Z" fill="#F7B737"/>
<path d="M70.7496 69.9351C61.9598 69.9351 61.948 61.4863 61.9598 61.3C62.2503 56.6982 66.0746 53.0559 70.7496 53.0559C75.4246 53.0559 79.2489 56.6982 79.5395 61.3C79.5513 61.4863 79.5572 69.9351 70.7496 69.9351Z" fill="#FF9838"/>
<path d="M70.7495 69.544C66.0745 69.544 62.251 65.9015 61.9604 61.2999C61.9486 61.4863 61.9419 61.6741 61.9419 61.8634C61.9419 66.7277 65.8852 70.671 70.7495 70.671C75.6138 70.671 79.5571 66.7277 79.5571 61.8634C79.5571 61.674 79.5504 61.4863 79.5386 61.2999C79.248 65.9015 75.4244 69.544 70.7495 69.544Z" fill="#FF8709"/>
<path d="M71.5555 57.5731L72.3769 59.2375C72.5079 59.5029 72.7611 59.6868 73.0539 59.7294L74.8907 59.9963C75.6282 60.1034 75.9227 61.0097 75.389 61.53L74.0599 62.8255C73.848 63.0321 73.7513 63.3296 73.8013 63.6213L74.1151 65.4507C74.1449 65.6242 74.0675 65.9324 74.0675 65.9324H72.8105L70.7492 64.7735L68.688 65.9323L67.4413 65.9574C67.4413 65.9574 67.3518 65.6343 67.3834 65.4506L67.6971 63.6213C67.7472 63.3296 67.6504 63.032 67.4385 62.8254L66.1094 61.5299C65.5758 61.0097 65.8702 60.1034 66.6078 59.9962L68.4445 59.7293C68.7373 59.6868 68.9905 59.5028 69.1215 59.2375L69.9429 57.5731C70.2727 56.9048 71.2257 56.9048 71.5555 57.5731Z" fill="#FFF5F5"/>
<path d="M70.6037 64.2646L67.4316 65.9323C67.6161 66.3991 68.1844 66.6636 68.6882 66.3987L70.331 65.535C70.593 65.3973 70.9059 65.3973 71.1679 65.535L72.8107 66.3987C73.3145 66.6636 73.8828 66.3991 74.0673 65.9323L70.8952 64.2646C70.8039 64.2167 70.6949 64.2167 70.6037 64.2646Z" fill="#EFE2DD"/>
</g>
</g>
<defs>
<filter id="filter0_d_670_8657" x="0.1665" y="0.63333" width="141.167" height="141.167" filterUnits="userSpaceOnUse" color-interpolation-filters="sRGB">
<feFlood flood-opacity="0" result="BackgroundImageFix"/>
<feColorMatrix in="SourceAlpha" type="matrix" values="0 0 0 0 0 0 0 0 0 0 0 0 0 0 0 0 0 0 127 0" result="hardAlpha"/>
<feOffset dy="5.13333"/>
<feGaussianBlur stdDeviation="19.25"/>
<feComposite in2="hardAlpha" operator="out"/>
<feColorMatrix type="matrix" values="0 0 0 0 0.0235294 0 0 0 0 0.0235294 0 0 0 0 0.25098 0 0 0 0.1 0"/>
<feBlend mode="normal" in2="BackgroundImageFix" result="effect1_dropShadow_670_8657"/>
<feBlend mode="normal" in="SourceGraphic" in2="effect1_dropShadow_670_8657" result="shape"/>
</filter>
<clipPath id="clip0_670_8657">
<rect width="30.8" height="30.8" fill="white" transform="translate(55.3496 50.6833)"/>
</clipPath>
</defs>
</svg>
