<svg width="374" height="316" viewBox="0 0 374 316" fill="none" xmlns="http://www.w3.org/2000/svg">
<g filter="url(#filter0_d_670_8645)">
<g clip-path="url(#clip0_670_8645)">
<rect x="85" y="50" width="233.333" height="217" rx="10" fill="white"/>
<path d="M111.779 89.93H113.103C113.991 89.93 114.634 89.7652 115.033 89.4355C115.431 89.1059 115.631 88.6167 115.631 87.9681C115.631 87.3088 115.416 86.8356 114.985 86.5485C114.554 86.2614 113.906 86.1178 113.039 86.1178H111.779V89.93ZM111.779 91.5091V96.1666H109.873V84.5068H113.167C114.671 84.5068 115.785 84.7886 116.508 85.3522C117.231 85.9158 117.593 86.7665 117.593 87.9043C117.593 89.3558 116.838 90.3899 115.328 91.0066L118.622 96.1666H116.452L113.661 91.5091H111.779ZM123.973 96.3261C122.601 96.3261 121.527 95.9274 120.751 95.1298C119.98 94.327 119.595 93.2238 119.595 91.8201C119.595 90.3792 119.953 89.2468 120.671 88.4226C121.389 87.5985 122.375 87.1865 123.63 87.1865C124.794 87.1865 125.714 87.5401 126.389 88.2472C127.065 88.9543 127.402 89.9273 127.402 91.1661V92.179H121.525C121.551 93.035 121.782 93.6943 122.218 94.1569C122.654 94.6141 123.269 94.8427 124.061 94.8427C124.582 94.8427 125.066 94.7949 125.512 94.6992C125.964 94.5982 126.448 94.4333 126.964 94.2047V95.728C126.506 95.946 126.044 96.1002 125.576 96.1906C125.108 96.2809 124.574 96.3261 123.973 96.3261ZM123.63 88.6061C123.035 88.6061 122.556 88.7948 122.194 89.1723C121.838 89.5498 121.626 90.1001 121.556 90.8232H125.56C125.549 90.0948 125.374 89.5445 125.034 89.1723C124.693 88.7948 124.226 88.6061 123.63 88.6061ZM136.765 96.1666L135.625 92.0514C135.487 91.6154 135.237 90.6026 134.875 89.0128H134.803C134.495 90.4484 134.25 91.4665 134.07 92.0673L132.897 96.1666H130.824L128.351 87.346H130.265L131.39 91.6925C131.645 92.7665 131.826 93.6863 131.932 94.4519H131.98C132.033 94.0638 132.113 93.6199 132.219 93.1201C132.331 92.615 132.427 92.2375 132.507 91.9876L133.846 87.346H135.904L137.204 91.9876C137.284 92.2481 137.382 92.6469 137.499 93.1839C137.621 93.7209 137.693 94.1383 137.714 94.436H137.778C137.858 93.782 138.044 92.8675 138.336 91.6925L139.477 87.346H141.359L138.871 96.1666H136.765ZM148.401 96.1666L148.026 94.9384H147.963C147.537 95.4754 147.109 95.8423 146.679 96.039C146.248 96.2304 145.695 96.3261 145.02 96.3261C144.153 96.3261 143.475 96.0922 142.986 95.6243C142.502 95.1564 142.26 94.4945 142.26 93.6385C142.26 92.7293 142.598 92.0434 143.273 91.5809C143.948 91.1183 144.977 90.8657 146.36 90.8232L147.883 90.7753V90.3048C147.883 89.7412 147.75 89.3212 147.484 89.0447C147.224 88.7629 146.817 88.622 146.264 88.622C145.812 88.622 145.379 88.6885 144.964 88.8214C144.549 88.9543 144.15 89.1112 143.768 89.292L143.161 87.9521C143.64 87.7022 144.164 87.5135 144.733 87.3859C145.301 87.2529 145.838 87.1865 146.344 87.1865C147.465 87.1865 148.311 87.4311 148.88 87.9202C149.454 88.4094 149.741 89.1776 149.741 90.2251V96.1666H148.401ZM145.61 94.8906C146.29 94.8906 146.835 94.7018 147.245 94.3243C147.66 93.9415 147.867 93.4072 147.867 92.7213V91.9557L146.734 92.0035C145.852 92.0354 145.208 92.1843 144.804 92.4502C144.406 92.7107 144.206 93.1121 144.206 93.6544C144.206 94.0479 144.323 94.3536 144.557 94.5716C144.791 94.7842 145.142 94.8906 145.61 94.8906ZM156.831 87.1865C157.209 87.1865 157.52 87.2131 157.764 87.2662L157.581 89.0128C157.315 88.949 157.038 88.9171 156.751 88.9171C156.002 88.9171 155.393 89.1617 154.925 89.6508C154.462 90.14 154.231 90.7753 154.231 91.5569V96.1666H152.357V87.346H153.824L154.072 88.9012H154.167C154.46 88.3748 154.84 87.9574 155.308 87.649C155.781 87.3407 156.289 87.1865 156.831 87.1865ZM162.382 96.3261C161.281 96.3261 160.423 95.9274 159.806 95.1298C159.189 94.3323 158.881 93.2131 158.881 91.7723C158.881 90.3261 159.192 89.2016 159.814 88.3987C160.441 87.5906 161.308 87.1865 162.414 87.1865C163.573 87.1865 164.455 87.6145 165.062 88.4705H165.157C165.067 87.8378 165.022 87.338 165.022 86.9712V83.7571H166.904V96.1666H165.436L165.109 95.0102H165.022C164.421 95.8875 163.541 96.3261 162.382 96.3261ZM162.884 94.8108C163.655 94.8108 164.216 94.5955 164.567 94.1648C164.918 93.7289 165.099 93.0244 165.109 92.0514V91.7882C165.109 90.677 164.929 89.8874 164.567 89.4196C164.206 88.9517 163.639 88.7177 162.868 88.7177C162.209 88.7177 161.701 88.9862 161.345 89.5232C160.989 90.0549 160.811 90.8152 160.811 91.8042C160.811 92.7825 160.984 93.5295 161.329 94.0452C161.675 94.5556 162.193 94.8108 162.884 94.8108ZM173.436 96.3261C172.064 96.3261 170.99 95.9274 170.214 95.1298C169.443 94.327 169.057 93.2238 169.057 91.8201C169.057 90.3792 169.416 89.2468 170.134 88.4226C170.852 87.5985 171.838 87.1865 173.093 87.1865C174.257 87.1865 175.177 87.5401 175.852 88.2472C176.527 88.9543 176.865 89.9273 176.865 91.1661V92.179H170.987C171.014 93.035 171.245 93.6943 171.681 94.1569C172.117 94.6141 172.731 94.8427 173.523 94.8427C174.044 94.8427 174.528 94.7949 174.975 94.6992C175.427 94.5982 175.911 94.4333 176.426 94.2047V95.728C175.969 95.946 175.506 96.1002 175.039 96.1906C174.571 96.2809 174.036 96.3261 173.436 96.3261ZM173.093 88.6061C172.497 88.6061 172.019 88.7948 171.657 89.1723C171.301 89.5498 171.088 90.1001 171.019 90.8232H175.023C175.012 90.0948 174.837 89.5445 174.496 89.1723C174.156 88.7948 173.688 88.6061 173.093 88.6061ZM181.969 96.3261C180.868 96.3261 180.01 95.9274 179.393 95.1298C178.776 94.3323 178.468 93.2131 178.468 91.7723C178.468 90.3261 178.779 89.2016 179.401 88.3987C180.028 87.5906 180.895 87.1865 182.001 87.1865C183.16 87.1865 184.043 87.6145 184.649 88.4705H184.744C184.654 87.8378 184.609 87.338 184.609 86.9712V83.7571H186.491V96.1666H185.024L184.697 95.0102H184.609C184.008 95.8875 183.128 96.3261 181.969 96.3261ZM182.472 94.8108C183.242 94.8108 183.803 94.5955 184.154 94.1648C184.505 93.7289 184.686 93.0244 184.697 92.0514V91.7882C184.697 90.677 184.516 89.8874 184.154 89.4196C183.793 88.9517 183.227 88.7177 182.456 88.7177C181.796 88.7177 181.289 88.9862 180.932 89.5232C180.576 90.0549 180.398 90.8152 180.398 91.8042C180.398 92.7825 180.571 93.5295 180.916 94.0452C181.262 94.5556 181.78 94.8108 182.472 94.8108ZM117.122 110.346V111.375L115.615 111.654C115.753 111.84 115.867 112.069 115.958 112.34C116.048 112.611 116.093 112.898 116.093 113.201C116.093 114.11 115.78 114.825 115.152 115.346C114.525 115.868 113.661 116.128 112.56 116.128C112.279 116.128 112.023 116.107 111.795 116.064C111.391 116.314 111.189 116.607 111.189 116.942C111.189 117.144 111.282 117.295 111.468 117.396C111.659 117.497 112.007 117.548 112.513 117.548H114.052C115.025 117.548 115.764 117.755 116.269 118.17C116.774 118.584 117.027 119.183 117.027 119.964C117.027 120.964 116.614 121.735 115.79 122.277C114.966 122.819 113.775 123.09 112.217 123.09C111.016 123.09 110.099 122.878 109.466 122.452C108.833 122.027 108.517 121.421 108.517 120.634C108.517 120.092 108.687 119.635 109.027 119.262C109.373 118.895 109.854 118.64 110.471 118.497C110.221 118.39 110.014 118.22 109.849 117.986C109.689 117.747 109.61 117.497 109.61 117.237C109.61 116.907 109.703 116.628 109.889 116.399C110.075 116.171 110.351 115.945 110.718 115.721C110.261 115.525 109.889 115.206 109.602 114.764C109.32 114.318 109.179 113.797 109.179 113.201C109.179 112.244 109.479 111.502 110.08 110.976C110.686 110.45 111.548 110.186 112.664 110.186C112.914 110.186 113.174 110.205 113.446 110.242C113.722 110.274 113.929 110.309 114.068 110.346H117.122ZM110.192 120.538C110.192 120.942 110.373 121.253 110.734 121.471C111.101 121.689 111.614 121.798 112.273 121.798C113.294 121.798 114.054 121.652 114.554 121.36C115.054 121.067 115.304 120.679 115.304 120.195C115.304 119.813 115.166 119.539 114.889 119.374C114.618 119.214 114.11 119.135 113.366 119.135H111.946C111.409 119.135 110.981 119.26 110.662 119.51C110.349 119.765 110.192 120.108 110.192 120.538ZM110.997 113.201C110.997 113.754 111.138 114.179 111.42 114.477C111.707 114.775 112.116 114.924 112.648 114.924C113.733 114.924 114.275 114.344 114.275 113.185C114.275 112.611 114.139 112.17 113.868 111.861C113.602 111.548 113.196 111.391 112.648 111.391C112.106 111.391 111.694 111.545 111.412 111.853C111.135 112.162 110.997 112.611 110.997 113.201ZM123.239 110.186C123.617 110.186 123.928 110.213 124.172 110.266L123.989 112.013C123.723 111.949 123.447 111.917 123.16 111.917C122.41 111.917 121.801 112.162 121.333 112.651C120.871 113.14 120.639 113.775 120.639 114.557V119.167H118.765V110.346H120.233L120.48 111.901H120.576C120.868 111.375 121.248 110.957 121.716 110.649C122.189 110.341 122.697 110.186 123.239 110.186ZM133.639 114.74C133.639 116.181 133.269 117.306 132.53 118.114C131.791 118.922 130.763 119.326 129.444 119.326C128.62 119.326 127.891 119.14 127.259 118.768C126.626 118.396 126.14 117.861 125.799 117.165C125.459 116.468 125.289 115.66 125.289 114.74C125.289 113.31 125.656 112.194 126.389 111.391C127.123 110.588 128.157 110.186 129.492 110.186C130.768 110.186 131.778 110.599 132.522 111.423C133.267 112.241 133.639 113.347 133.639 114.74ZM127.219 114.74C127.219 116.777 127.971 117.795 129.476 117.795C130.965 117.795 131.709 116.777 131.709 114.74C131.709 112.725 130.959 111.718 129.46 111.718C128.673 111.718 128.102 111.978 127.745 112.499C127.394 113.02 127.219 113.767 127.219 114.74ZM143.034 119.167L141.893 115.051C141.755 114.615 141.505 113.603 141.144 112.013H141.072C140.764 113.448 140.519 114.467 140.338 115.067L139.166 119.167H137.092L134.62 110.346H136.534L137.659 114.693C137.914 115.767 138.095 116.686 138.201 117.452H138.249C138.302 117.064 138.382 116.62 138.488 116.12C138.6 115.615 138.695 115.237 138.775 114.988L140.115 110.346H142.173L143.472 114.988C143.552 115.248 143.651 115.647 143.768 116.184C143.89 116.721 143.962 117.138 143.983 117.436H144.047C144.126 116.782 144.313 115.868 144.605 114.693L145.745 110.346H147.628L145.139 119.167H143.034ZM152.437 117.811C152.894 117.811 153.351 117.739 153.808 117.595V119.007C153.601 119.098 153.333 119.172 153.003 119.23C152.679 119.294 152.341 119.326 151.99 119.326C150.214 119.326 149.326 118.39 149.326 116.519V111.766H148.122V110.936L149.414 110.25L150.052 108.384H151.208V110.346H153.721V111.766H151.208V116.487C151.208 116.939 151.32 117.274 151.543 117.492C151.772 117.704 152.07 117.811 152.437 117.811ZM163.339 119.167H161.457V113.743C161.457 113.063 161.318 112.555 161.042 112.22C160.771 111.885 160.338 111.718 159.742 111.718C158.955 111.718 158.376 111.954 158.003 112.428C157.637 112.895 157.453 113.682 157.453 114.788V119.167H155.579V106.757H157.453V109.907C157.453 110.412 157.421 110.952 157.357 111.526H157.477C157.732 111.101 158.086 110.771 158.538 110.537C158.995 110.303 159.527 110.186 160.133 110.186C162.27 110.186 163.339 111.263 163.339 113.416V119.167ZM117.122 132.346V133.375L115.615 133.654C115.753 133.84 115.867 134.069 115.958 134.34C116.048 134.611 116.093 134.898 116.093 135.201C116.093 136.11 115.78 136.825 115.152 137.346C114.525 137.868 113.661 138.128 112.56 138.128C112.279 138.128 112.023 138.107 111.795 138.064C111.391 138.314 111.189 138.607 111.189 138.942C111.189 139.144 111.282 139.295 111.468 139.396C111.659 139.497 112.007 139.548 112.513 139.548H114.052C115.025 139.548 115.764 139.755 116.269 140.17C116.774 140.584 117.027 141.183 117.027 141.964C117.027 142.964 116.614 143.735 115.79 144.277C114.966 144.819 113.775 145.09 112.217 145.09C111.016 145.09 110.099 144.878 109.466 144.452C108.833 144.027 108.517 143.421 108.517 142.634C108.517 142.092 108.687 141.635 109.027 141.262C109.373 140.895 109.854 140.64 110.471 140.497C110.221 140.39 110.014 140.22 109.849 139.986C109.689 139.747 109.61 139.497 109.61 139.237C109.61 138.907 109.703 138.628 109.889 138.399C110.075 138.171 110.351 137.945 110.718 137.721C110.261 137.525 109.889 137.206 109.602 136.764C109.32 136.318 109.179 135.797 109.179 135.201C109.179 134.244 109.479 133.502 110.08 132.976C110.686 132.45 111.548 132.186 112.664 132.186C112.914 132.186 113.174 132.205 113.446 132.242C113.722 132.274 113.929 132.309 114.068 132.346H117.122ZM110.192 142.538C110.192 142.942 110.373 143.253 110.734 143.471C111.101 143.689 111.614 143.798 112.273 143.798C113.294 143.798 114.054 143.652 114.554 143.36C115.054 143.067 115.304 142.679 115.304 142.195C115.304 141.813 115.166 141.539 114.889 141.374C114.618 141.214 114.11 141.135 113.366 141.135H111.946C111.409 141.135 110.981 141.26 110.662 141.51C110.349 141.765 110.192 142.108 110.192 142.538ZM110.997 135.201C110.997 135.754 111.138 136.179 111.42 136.477C111.707 136.775 112.116 136.924 112.648 136.924C113.733 136.924 114.275 136.344 114.275 135.185C114.275 134.611 114.139 134.17 113.868 133.861C113.602 133.548 113.196 133.391 112.648 133.391C112.106 133.391 111.694 133.545 111.412 133.853C111.135 134.162 110.997 134.611 110.997 135.201ZM124.986 141.167L124.723 140.01H124.627C124.366 140.42 123.994 140.741 123.51 140.975C123.032 141.209 122.484 141.326 121.868 141.326C120.799 141.326 120.001 141.06 119.475 140.529C118.949 139.997 118.685 139.191 118.685 138.112V132.346H120.576V137.785C120.576 138.46 120.714 138.968 120.99 139.308C121.267 139.643 121.7 139.811 122.29 139.811C123.077 139.811 123.654 139.577 124.021 139.109C124.393 138.636 124.579 137.846 124.579 136.74V132.346H126.461V141.167H124.986ZM134.652 141.167L134.277 139.938H134.213C133.788 140.475 133.36 140.842 132.929 141.039C132.499 141.23 131.946 141.326 131.27 141.326C130.404 141.326 129.726 141.092 129.237 140.624C128.753 140.156 128.511 139.494 128.511 138.638C128.511 137.729 128.849 137.043 129.524 136.581C130.199 136.118 131.228 135.866 132.61 135.823L134.133 135.775V135.305C134.133 134.741 134.001 134.321 133.735 134.045C133.474 133.763 133.067 133.622 132.514 133.622C132.063 133.622 131.629 133.688 131.215 133.821C130.8 133.954 130.401 134.111 130.018 134.292L129.412 132.952C129.891 132.702 130.414 132.513 130.983 132.386C131.552 132.253 132.089 132.186 132.594 132.186C133.716 132.186 134.561 132.431 135.13 132.92C135.705 133.409 135.992 134.178 135.992 135.225V141.167H134.652ZM131.861 139.891C132.541 139.891 133.086 139.702 133.495 139.324C133.91 138.942 134.118 138.407 134.118 137.721V136.956L132.985 137.004C132.102 137.035 131.459 137.184 131.055 137.45C130.656 137.711 130.457 138.112 130.457 138.654C130.457 139.048 130.574 139.354 130.808 139.572C131.042 139.784 131.393 139.891 131.861 139.891ZM143.082 132.186C143.459 132.186 143.77 132.213 144.015 132.266L143.831 134.013C143.566 133.949 143.289 133.917 143.002 133.917C142.252 133.917 141.644 134.162 141.176 134.651C140.713 135.14 140.482 135.775 140.482 136.557V141.167H138.608V132.346H140.075L140.322 133.901H140.418C140.71 133.375 141.091 132.957 141.558 132.649C142.032 132.341 142.539 132.186 143.082 132.186ZM151.177 141.167L150.802 139.938H150.738C150.313 140.475 149.885 140.842 149.454 141.039C149.023 141.23 148.47 141.326 147.795 141.326C146.928 141.326 146.251 141.092 145.761 140.624C145.278 140.156 145.036 139.494 145.036 138.638C145.036 137.729 145.373 137.043 146.049 136.581C146.724 136.118 147.753 135.866 149.135 135.823L150.658 135.775V135.305C150.658 134.741 150.525 134.321 150.259 134.045C149.999 133.763 149.592 133.622 149.039 133.622C148.587 133.622 148.154 133.688 147.739 133.821C147.325 133.954 146.926 134.111 146.543 134.292L145.937 132.952C146.415 132.702 146.939 132.513 147.508 132.386C148.077 132.253 148.614 132.186 149.119 132.186C150.241 132.186 151.086 132.431 151.655 132.92C152.229 133.409 152.516 134.178 152.516 135.225V141.167H151.177ZM148.385 139.891C149.066 139.891 149.611 139.702 150.02 139.324C150.435 138.942 150.642 138.407 150.642 137.721V136.956L149.51 137.004C148.627 137.035 147.984 137.184 147.58 137.45C147.181 137.711 146.982 138.112 146.982 138.654C146.982 139.048 147.099 139.354 147.333 139.572C147.566 139.784 147.917 139.891 148.385 139.891ZM162.892 141.167H161.01V135.743C161.01 135.063 160.872 134.555 160.595 134.22C160.324 133.885 159.891 133.718 159.295 133.718C158.503 133.718 157.924 133.952 157.557 134.42C157.19 134.887 157.007 135.672 157.007 136.772V141.167H155.132V132.346H156.6L156.863 133.502H156.959C157.225 133.082 157.602 132.758 158.091 132.529C158.58 132.301 159.123 132.186 159.718 132.186C161.834 132.186 162.892 133.263 162.892 135.416V141.167ZM168.786 139.811C169.243 139.811 169.7 139.739 170.158 139.595V141.007C169.95 141.098 169.682 141.172 169.352 141.23C169.028 141.294 168.69 141.326 168.339 141.326C166.564 141.326 165.676 140.39 165.676 138.519V133.766H164.471V132.936L165.763 132.25L166.401 130.384H167.558V132.346H170.07V133.766H167.558V138.487C167.558 138.939 167.669 139.274 167.893 139.492C168.121 139.704 168.419 139.811 168.786 139.811ZM175.78 141.326C174.409 141.326 173.335 140.927 172.558 140.13C171.787 139.327 171.402 138.224 171.402 136.82C171.402 135.379 171.761 134.247 172.479 133.423C173.196 132.599 174.183 132.186 175.437 132.186C176.602 132.186 177.522 132.54 178.197 133.247C178.872 133.954 179.21 134.927 179.21 136.166V137.179H173.332C173.358 138.035 173.59 138.694 174.026 139.157C174.462 139.614 175.076 139.843 175.868 139.843C176.389 139.843 176.873 139.795 177.319 139.699C177.771 139.598 178.255 139.433 178.771 139.205V140.728C178.314 140.946 177.851 141.1 177.383 141.191C176.915 141.281 176.381 141.326 175.78 141.326ZM175.437 133.606C174.842 133.606 174.363 133.795 174.002 134.172C173.646 134.55 173.433 135.1 173.364 135.823H177.367C177.357 135.095 177.181 134.545 176.841 134.172C176.501 133.795 176.033 133.606 175.437 133.606ZM185.191 141.326C183.819 141.326 182.745 140.927 181.969 140.13C181.198 139.327 180.813 138.224 180.813 136.82C180.813 135.379 181.172 134.247 181.889 133.423C182.607 132.599 183.593 132.186 184.848 132.186C186.013 132.186 186.932 132.54 187.608 133.247C188.283 133.954 188.62 134.927 188.62 136.166V137.179H182.743C182.769 138.035 183.001 138.694 183.437 139.157C183.873 139.614 184.487 139.843 185.279 139.843C185.8 139.843 186.284 139.795 186.73 139.699C187.182 139.598 187.666 139.433 188.182 139.205V140.728C187.725 140.946 187.262 141.1 186.794 141.191C186.326 141.281 185.792 141.326 185.191 141.326ZM184.848 133.606C184.253 133.606 183.774 133.795 183.413 134.172C183.056 134.55 182.844 135.1 182.775 135.823H186.778C186.768 135.095 186.592 134.545 186.252 134.172C185.912 133.795 185.444 133.606 184.848 133.606ZM193.725 141.326C192.624 141.326 191.765 140.927 191.149 140.13C190.532 139.332 190.223 138.213 190.223 136.772C190.223 135.326 190.535 134.202 191.157 133.399C191.784 132.591 192.651 132.186 193.757 132.186C194.916 132.186 195.798 132.614 196.404 133.47H196.5C196.41 132.838 196.364 132.338 196.364 131.971V128.757H198.247V141.167H196.779L196.452 140.01H196.364C195.764 140.887 194.884 141.326 193.725 141.326ZM194.227 139.811C194.998 139.811 195.559 139.595 195.91 139.165C196.261 138.729 196.442 138.024 196.452 137.051V136.788C196.452 135.677 196.271 134.887 195.91 134.42C195.548 133.952 194.982 133.718 194.211 133.718C193.552 133.718 193.044 133.986 192.688 134.523C192.332 135.055 192.153 135.815 192.153 136.804C192.153 137.782 192.326 138.529 192.672 139.045C193.017 139.556 193.536 139.811 194.227 139.811Z" fill="#060640"/>
<path d="M108.333 192.333C108.333 190.4 109.9 188.833 111.833 188.833C113.766 188.833 115.333 190.4 115.333 192.333V258.833H108.333V192.333Z" fill="url(#paint0_linear_670_8645)"/>
<path d="M134 173.667C134 171.734 135.567 170.167 137.5 170.167C139.433 170.167 141 171.734 141 173.667V258.833H134V173.667Z" fill="url(#paint1_linear_670_8645)"/>
<path d="M159.667 174.833C159.667 172.9 161.234 171.333 163.167 171.333C165.1 171.333 166.667 172.9 166.667 174.833V258.833H159.667V174.833Z" fill="url(#paint2_linear_670_8645)"/>
<path d="M185.333 191.167C185.333 189.234 186.9 187.667 188.833 187.667C190.766 187.667 192.333 189.234 192.333 191.167V258.833H185.333V191.167Z" fill="url(#paint3_linear_670_8645)"/>
<path d="M211 184.167C211 182.234 212.567 180.667 214.5 180.667C216.433 180.667 218 182.234 218 184.167V258.833H211V184.167Z" fill="url(#paint4_linear_670_8645)"/>
<path d="M262.333 148C262.333 146.067 263.9 144.5 265.833 144.5C267.766 144.5 269.333 146.067 269.333 148V258.833H262.333V148Z" fill="url(#paint5_linear_670_8645)"/>
<path d="M288 152.667C288 150.734 289.567 149.167 291.5 149.167C293.433 149.167 295 150.734 295 152.667V258.833H288V152.667Z" fill="url(#paint6_linear_670_8645)"/>
<path d="M78 243.667C78 243.667 109.477 169.115 149.75 169.583C170.777 169.828 178.403 192.61 199.333 190.583C227.231 187.882 222.059 140.301 250.083 139.833C264.932 139.586 270.863 154.436 285.667 153.25C307.986 151.462 326.5 113 326.5 113" stroke="#FF4755" stroke-width="1.75"/>
<path d="M236.667 142.167C236.667 140.234 238.234 138.667 240.167 138.667C242.1 138.667 243.667 140.234 243.667 142.167V258.833H236.667V142.167Z" fill="url(#paint7_linear_670_8645)"/>
<circle cx="240.167" cy="142.167" r="6.41667" fill="#FDBF00" stroke="white" stroke-width="1.16667"/>
</g>
</g>
<defs>
<filter id="filter0_d_670_8645" x="0" y="0" width="373.333" height="357" filterUnits="userSpaceOnUse" color-interpolation-filters="sRGB">
<feFlood flood-opacity="0" result="BackgroundImageFix"/>
<feColorMatrix in="SourceAlpha" type="matrix" values="0 0 0 0 0 0 0 0 0 0 0 0 0 0 0 0 0 0 127 0" result="hardAlpha"/>
<feOffset dx="-15" dy="20"/>
<feGaussianBlur stdDeviation="35"/>
<feComposite in2="hardAlpha" operator="out"/>
<feColorMatrix type="matrix" values="0 0 0 0 0 0 0 0 0 0 0 0 0 0 0.183333 0 0 0 0.03 0"/>
<feBlend mode="normal" in2="BackgroundImageFix" result="effect1_dropShadow_670_8645"/>
<feBlend mode="normal" in="SourceGraphic" in2="effect1_dropShadow_670_8645" result="shape"/>
</filter>
<linearGradient id="paint0_linear_670_8645" x1="111.833" y1="188.833" x2="111.833" y2="258.833" gradientUnits="userSpaceOnUse">
<stop stop-color="#DEEFFF"/>
<stop offset="1" stop-color="#DEEFFF" stop-opacity="0"/>
</linearGradient>
<linearGradient id="paint1_linear_670_8645" x1="137.5" y1="170.167" x2="137.5" y2="258.833" gradientUnits="userSpaceOnUse">
<stop stop-color="#DEEFFF"/>
<stop offset="1" stop-color="#DEEFFF" stop-opacity="0"/>
</linearGradient>
<linearGradient id="paint2_linear_670_8645" x1="163.167" y1="171.333" x2="163.167" y2="258.833" gradientUnits="userSpaceOnUse">
<stop stop-color="#DEEFFF"/>
<stop offset="1" stop-color="#DEEFFF" stop-opacity="0"/>
</linearGradient>
<linearGradient id="paint3_linear_670_8645" x1="188.833" y1="187.667" x2="188.833" y2="258.833" gradientUnits="userSpaceOnUse">
<stop stop-color="#DEEFFF"/>
<stop offset="1" stop-color="#DEEFFF" stop-opacity="0"/>
</linearGradient>
<linearGradient id="paint4_linear_670_8645" x1="214.5" y1="180.667" x2="214.5" y2="258.833" gradientUnits="userSpaceOnUse">
<stop stop-color="#DEEFFF"/>
<stop offset="1" stop-color="#DEEFFF" stop-opacity="0"/>
</linearGradient>
<linearGradient id="paint5_linear_670_8645" x1="265.833" y1="144.5" x2="265.833" y2="258.833" gradientUnits="userSpaceOnUse">
<stop stop-color="#DEEFFF"/>
<stop offset="1" stop-color="#DEEFFF" stop-opacity="0"/>
</linearGradient>
<linearGradient id="paint6_linear_670_8645" x1="291.5" y1="149.167" x2="291.5" y2="258.833" gradientUnits="userSpaceOnUse">
<stop stop-color="#DEEFFF"/>
<stop offset="1" stop-color="#DEEFFF" stop-opacity="0"/>
</linearGradient>
<linearGradient id="paint7_linear_670_8645" x1="240.167" y1="138.667" x2="240.167" y2="258.833" gradientUnits="userSpaceOnUse">
<stop stop-color="#DEEFFF"/>
<stop offset="1" stop-color="#DEEFFF" stop-opacity="0"/>
</linearGradient>
<clipPath id="clip0_670_8645">
<rect x="85" y="50" width="233.333" height="217" rx="10" fill="white"/>
</clipPath>
</defs>
</svg>
